<?xml version="1.0" encoding="UTF-8" standalone="no"?>
<!-- Created with Inkscape (http://www.inkscape.org/) -->

<svg
   xmlns:dc="http://purl.org/dc/elements/1.1/"
   xmlns:cc="http://creativecommons.org/ns#"
   xmlns:rdf="http://www.w3.org/1999/02/22-rdf-syntax-ns#"
   xmlns:svg="http://www.w3.org/2000/svg"
   xmlns="http://www.w3.org/2000/svg"
   xmlns:sodipodi="http://sodipodi.sourceforge.net/DTD/sodipodi-0.dtd"
   xmlns:inkscape="http://www.inkscape.org/namespaces/inkscape"
   width="32"
   height="32"
   viewBox="0 0 8.4666665 8.4666669"
   version="1.1"
   id="svg8"
   inkscape:version="0.92.4 (5da689c313, 2019-01-14)"
   sodipodi:docname="input-converter.svg"
   inkscape:export-filename="C:\Users\bhajn\dev\brand\brand\assets\icons\input-converter.png"
   inkscape:export-xdpi="96"
   inkscape:export-ydpi="96">
  <defs
     id="defs2" />
  <sodipodi:namedview
     id="base"
     pagecolor="#ffffff"
     bordercolor="#666666"
     borderopacity="1.0"
     inkscape:pageopacity="0.0"
     inkscape:pageshadow="2"
     inkscape:zoom="7.470599"
     inkscape:cx="-0.76651587"
     inkscape:cy="15.780439"
     inkscape:document-units="mm"
     inkscape:current-layer="layer1"
     showgrid="false"
     units="px"
     inkscape:window-width="2560"
     inkscape:window-height="1377"
     inkscape:window-x="-8"
     inkscape:window-y="-8"
     inkscape:window-maximized="1"
     showguides="true" />
  <metadata
     id="metadata5">
    <rdf:RDF>
      <cc:Work
         rdf:about="">
        <dc:format>image/svg+xml</dc:format>
        <dc:type
           rdf:resource="http://purl.org/dc/dcmitype/StillImage" />
        <dc:title></dc:title>
      </cc:Work>
    </rdf:RDF>
  </metadata>
  <g
     inkscape:label="Layer 1"
     inkscape:groupmode="layer"
     id="layer1"
     transform="translate(0,-288.53332)">
    <g
       aria-label="A"
       style="font-style:normal;font-variant:normal;font-weight:bold;font-stretch:normal;font-size:5.55701399px;line-height:1.25;font-family:'Noto Sans';-inkscape-font-specification:'Noto Sans, Bold';font-variant-ligatures:normal;font-variant-caps:normal;font-variant-numeric:normal;font-feature-settings:normal;text-align:start;letter-spacing:0px;word-spacing:0px;writing-mode:lr-tb;text-anchor:start;fill:#000000;fill-opacity:1;stroke:none;stroke-width:0.13892856"
       id="text817"
       transform="matrix(1.0244995,0,0,1.0465942,-0.00809462,-13.494767)">
      <path
         d="M 2.9364474,293.651 2.6474827,292.70631 H 1.2026591 L 0.91369433,293.651 H 0.00790105 L 1.4082686,289.66662 H 2.4363162 L 3.8422407,293.651 Z M 2.4474302,292.00057 2.1584655,291.0781 q -0.027785,-0.0945 -0.072241,-0.23895 -0.044456,-0.14448 -0.088912,-0.29452 -0.044456,-0.15004 -0.072241,-0.26118 -0.027785,0.11114 -0.077798,0.27785 -0.044456,0.16115 -0.088912,0.31119 -0.038899,0.14449 -0.061127,0.20561 l -0.2834077,0.92247 z"
         style="font-style:normal;font-variant:normal;font-weight:bold;font-stretch:normal;font-size:5.55701399px;font-family:'Noto Sans';-inkscape-font-specification:'Noto Sans, Bold';font-variant-ligatures:normal;font-variant-caps:normal;font-variant-numeric:normal;font-feature-settings:normal;text-align:start;writing-mode:lr-tb;text-anchor:start;stroke-width:0.13892856"
         id="path834"
         inkscape:connector-curvature="0" />
    </g>
    <g
       aria-label="A"
       style="font-style:normal;font-variant:normal;font-weight:900;font-stretch:normal;font-size:6.57729101px;line-height:1.25;font-family:OpenGurbaniAkhar;-inkscape-font-specification:'OpenGurbaniAkhar, Heavy';font-variant-ligatures:normal;font-variant-caps:normal;font-variant-numeric:normal;font-feature-settings:normal;text-align:start;letter-spacing:0px;word-spacing:0px;writing-mode:lr-tb;text-anchor:start;fill:#000000;fill-opacity:1;stroke:none;stroke-width:0.1644316"
       id="text821"
       transform="matrix(0.88730697,0,0,0.99964608,0.96613324,0.17001049)">
      <path
         d="m 8.4665697,292.70479 v 0 l 9.7e-5,-0.70377 H 7.7562223 v 1.2464 c -0.1611436,0.0625 -0.3354418,0.15456 -0.5163173,0.27624 -0.036175,-0.2302 -0.095371,-0.44725 -0.1710096,-0.64786 -0.1414118,-0.37162 -0.3255759,-0.5788 -0.5459152,-0.62813 h -0.026309 c -0.1545664,0 -0.3354419,0.10524 -0.5426265,0.31571 -0.1545664,0.17759 -0.3124213,0.35517 -0.4702763,0.53605 -0.036175,-0.26638 -0.1052367,-0.49988 -0.2071847,-0.69719 -0.1348345,-0.26639 -0.2992667,-0.40122 -0.4965855,-0.40122 H 4.2472376 v 0.70377 h 0.3255759 c 0.1545663,0 0.2334938,0.27296 0.2334938,0.82216 0,0.16443 -0.075639,0.35518 -0.2334938,0.56894 -0.1512777,0.21705 -0.2302052,0.39792 -0.2302052,0.53934 0,0.14141 0.04933,0.25651 0.1447004,0.34201 0.098659,0.0855 0.2269165,0.12826 0.3814829,0.12826 0.1545663,0 0.2861121,-0.0658 0.3946374,-0.20061 0.1052367,-0.13154 0.1611436,-0.28611 0.1644323,-0.46041 0.00658,-0.17429 0.1183912,-0.40779 0.3420191,-0.69719 0.2170506,-0.29269 0.4275239,-0.50974 0.621554,-0.65115 0.1151026,0.2598 0.1742982,0.51632 0.1742982,0.77283 0,0.16772 -0.1085253,0.38148 -0.3288645,0.64129 -0.2203393,0.25651 -0.3288646,0.46698 -0.3288646,0.63142 0,0.16772 0.052618,0.28611 0.157855,0.35517 0.1085253,0.0691 0.2302052,0.10524 0.3650397,0.10524 0.2203392,0 0.3847715,-0.10853 0.4867195,-0.32229 0.023021,-0.0493 0.075639,-0.21705 0.1479891,-0.49987 0.078927,-0.28612 0.1677209,-0.46699 0.2762462,-0.5525 0.1052366,-0.0789 0.2433597,-0.15785 0.4143693,-0.2302 v 1.95345 h 0.7103474 z"
         style="font-style:normal;font-variant:normal;font-weight:900;font-stretch:normal;font-size:6.57729101px;font-family:OpenGurbaniAkhar;-inkscape-font-specification:'OpenGurbaniAkhar, Heavy';font-variant-ligatures:normal;font-variant-caps:normal;font-variant-numeric:normal;font-feature-settings:normal;text-align:start;writing-mode:lr-tb;text-anchor:start;fill:#000000;fill-opacity:1;stroke-width:0.1644316"
         id="path831"
         inkscape:connector-curvature="0"
         sodipodi:nodetypes="ccccccccscccsccsscscsccccscscsccccccc" />
    </g>
    <g
       id="g880">
      <path
         sodipodi:nodetypes="cc"
         inkscape:connector-curvature="0"
         id="path854"
         d="m 4.2528344,290.27451 c 1.8014494,0 1.8371038,-0.22239 1.8371038,1.68875"
         style="display:none;fill:none;stroke:#000000;stroke-width:0.34999999;stroke-linecap:round;stroke-linejoin:miter;stroke-miterlimit:4;stroke-dasharray:none;stroke-opacity:1" />
      <path
         sodipodi:nodetypes="ccc"
         inkscape:connector-curvature="0"
         id="path858"
         d="m 5.2828861,291.23392 0.8233903,1.09724 0.7352329,-1.09724"
         style="display:none;fill:none;stroke:#000000;stroke-width:0.34999999;stroke-linecap:round;stroke-linejoin:round;stroke-miterlimit:4;stroke-dasharray:none;stroke-opacity:1" />
    </g>
    <g
       id="g884"
       transform="translate(-4.8998284,0.05947464)">
      <path
         sodipodi:nodetypes="cc"
         inkscape:connector-curvature="0"
         id="path854-6"
         d="m 7.9478796,289.22295 c 1.9158171,-1.18246 2.8580044,0.37264 3.0271084,2.08809"
         style="fill:none;stroke:#000000;stroke-width:0.44999999;stroke-linecap:round;stroke-linejoin:miter;stroke-miterlimit:4;stroke-dasharray:none;stroke-opacity:1" />
      <path
         sodipodi:nodetypes="ccc"
         inkscape:connector-curvature="0"
         id="path858-9"
         d="m 10.000615,290.34538 0.974373,0.96566 0.567642,-1.1926"
         style="display:inline;fill:none;stroke:#000000;stroke-width:0.44999999;stroke-linecap:round;stroke-linejoin:round;stroke-miterlimit:4;stroke-dasharray:none;stroke-opacity:1" />
    </g>
  </g>
</svg>
